<svg height="464pt" viewBox="-60 0 464 464" width="464pt" xmlns="http://www.w3.org/2000/svg"><path d="m336 88h8v-88h-8c-4.417969 0-8 3.582031-8 8v72c0 4.417969 3.582031 8 8 8zm0 0"/><path d="m72 120v24h96v-24c0-4.417969-3.582031-8-8-8h-80c-4.417969 0-8 3.582031-8 8zm0 0"/><path d="m312 48v-16h-176c-13.253906 0-24 10.746094-24 24v40h16v-24c0-13.253906 10.746094-24 24-24zm0 0"/><path d="m0 280v8h240v-8c0-4.417969-3.582031-8-8-8h-224c-4.417969 0-8 3.582031-8 8zm0 0"/><path d="m16 248v8h208v-8c.046875-27.597656-10.921875-54.074219-30.472656-73.550781-5.890625-5.65625-12.5-10.515625-19.65625-14.449219h-107.6875c-31.125 18.382812-50.210938 51.851562-50.183594 88zm0 0"/><path d="m120 320c-4.417969 0-8 3.582031-8 8v32c0 4.417969 3.582031 8 8 8s8-3.582031 8-8v-32c0-4.417969-3.582031-8-8-8zm0 0"/><path d="m120 384c-4.417969 0-8 3.582031-8 8v32c0 4.417969 3.582031 8 8 8s8-3.582031 8-8v-32c0-4.417969-3.582031-8-8-8zm0 0"/><path d="m216 352c-4.417969 0-8 3.582031-8 8v32c0 4.417969 3.582031 8 8 8s8-3.582031 8-8v-32c0-4.417969-3.582031-8-8-8zm0 0"/><path d="m152 352c-4.417969 0-8 3.582031-8 8v32c0 4.417969 3.582031 8 8 8s8-3.582031 8-8v-32c0-4.417969-3.582031-8-8-8zm0 0"/><path d="m88 352c-4.417969 0-8 3.582031-8 8v32c0 4.417969 3.582031 8 8 8s8-3.582031 8-8v-32c0-4.417969-3.582031-8-8-8zm0 0"/><path d="m24 352c-4.417969 0-8 3.582031-8 8v32c0 4.417969 3.582031 8 8 8s8-3.582031 8-8v-32c0-4.417969-3.582031-8-8-8zm0 0"/><path d="m56 320c-4.417969 0-8 3.582031-8 8v32c0 4.417969 3.582031 8 8 8s8-3.582031 8-8v-32c0-4.417969-3.582031-8-8-8zm0 0"/><path d="m184 320c-4.417969 0-8 3.582031-8 8v32c0 4.417969 3.582031 8 8 8s8-3.582031 8-8v-32c0-4.417969-3.582031-8-8-8zm0 0"/><path d="m184 384c-4.417969 0-8 3.582031-8 8v32c0 4.417969 3.582031 8 8 8s8-3.582031 8-8v-32c0-4.417969-3.582031-8-8-8zm0 0"/><path d="m56 384c-4.417969 0-8 3.582031-8 8v32c0 4.417969 3.582031 8 8 8s8-3.582031 8-8v-32c0-4.417969-3.582031-8-8-8zm0 0"/><path d="m88 416c-4.417969 0-8 3.582031-8 8v32c0 4.417969 3.582031 8 8 8s8-3.582031 8-8v-32c0-4.417969-3.582031-8-8-8zm0 0"/><path d="m152 416c-4.417969 0-8 3.582031-8 8v32c0 4.417969 3.582031 8 8 8s8-3.582031 8-8v-32c0-4.417969-3.582031-8-8-8zm0 0"/></svg>